#!OML:ASF E:/inclinewalkrobotboard/Project1/Captureday1/Session1/subject1.ASF
:FULLY-SPECIFIED
:DEGREES
188
root 0 0 0 -1.7111517826631464 -5.347603620789814 -7.344655875114315
lowerback 10.095864549613438 2.4748914362583907 5.639675695368902
upperback 0.04421235205533741 4.033188733663942 1.4371727047308203
thorax -5.537995031600471 1.857053125240126 -2.236304059065377
lowerneck -14.679660793207262 -3.336021891632279 -0.9332024927821627
upperneck 17.268656482669154 -4.5934494764017755 1.3717491384581528
head 7.959814171938722 -2.1381299827427243 0.10420772027702224
rclavicle -1.3986697358179183E-16 -5.1774570336829325E-17
rhumerus -18.892333348359536 -6.501580159582785 -66.6060231912091
rradius 63.01735790695242
rwrist -9.00948202678022
rhand -13.040064350658113 -11.167464252571213
rfingers 7.12501999999985
rthumb 13.083318588107666 -40.365621615082844
lclavicle -8.112832593798069E-16 -3.668037389120233E-16
lhumerus -39.81676921857652 0.2353947635669255 83.30362745614657
lradius 38.58688142724189
lwrist 2.6323805031370293
lhand -19.22426500777097 0.2011965543511387
lfingers 7.125019999999873
lthumb 6.988512907532655 29.687511373152496
rfemur -4.913761194565185 4.2683134453849 18.993308007612622
rtibia 20.996916502223268
rfoot -8.196991101139627 -4.023457960644933
rtoes 0.7911881422691541
lfemur -15.845757655064734 -1.7734763060807022 -12.788709411554096
ltibia 37.03886145268051
lfoot -9.102303168665934 1.1541804561823046
ltoes -20.502447688365827
189
root 0 0 0 -1.698467524256921 -5.338323565409333 -7.338320700140569
lowerback 10.09155269646191 2.4765042085964994 5.621024884964975
upperback 0.03869809618326775 4.033028216413083 1.4285995900689392
thorax -5.540806813971445 1.8565239726170626 -2.234935273549909
lowerneck -14.632023165171551 -3.3327023340174957 -0.9197187457426581
upperneck 17.216933655777638 -4.5930832529312235 1.383346749504061
head 7.93927666502606 -2.136724858617469 0.10749276453248163
rclavicle -1.3457678987569987E-16 -4.746151721771506E-17
rhumerus -18.860422928672097 -6.447804236161332 -66.56477239972699
rradius 63.1666293465637
rwrist -9.058837330687606
rhand -13.01814496673828 -11.322218394670477
rfingers 7.12501999999985
rthumb 13.105392702759595 -40.518128996548874
lclavicle -8.295712222154461E-16 -3.8422985410319715E-16
lhumerus -40.085097161137796 0.2656018439241666 83.32953273328658
lradius 38.91808029463929
lwrist 2.510158378087862
lhand -18.950453569932137 -0.6308583693459564
lfingers 7.125019999999868
lthumb 7.248101025524853 28.84626155247728
rfemur -4.279109028504582 3.73305645222803 17.34240621225728
rtibia 20.781061848921723
rfoot -6.607414441875313 -3.3871842186271706
rtoes 1.258458410220828
lfemur -14.839731678248569 -2.0132401709259407 -13.015187096611196
ltibia 35.4812126546522
lfoot -10.122108177319571 1.80176500341366
ltoes -21.74779657676809
190
root 0 0 0 -1.6930183525960225 -5.311158598849877 -7.297695923852831
lowerback 10.090382724353962 2.4632507026907646 5.572234473710628
upperback 0.036168426373386076 4.009229852697208 1.4232982636168585
thorax -5.542171949956504 1.845452465399604 -2.2103866064848505
lowerneck -14.6075079803175 -3.327856673393494 -0.9158936278138481
upperneck 17.187628832405412 -4.587645977860352 1.3885110023752536
head 7.929622032468011 -2.1336752231445355 0.11012136394243865
rclavicle -1.3886940098379458E-16 -4.874901334965554E-17
rhumerus -18.957229708840362 -6.538108668955795 -66.6594166739369
rradius 62.881940698690286
rwrist -8.950291985548656
rhand -13.053388562424592 -11.06831367479913
rfingers 7.125019999999851
rthumb 13.07156364518577 -40.26844991684536
lclavicle -8.478270860636987E-16 -3.971834497608135E-16
lhumerus -40.29256900727318 0.2912569852728568 83.34904526635665
lradius 39.16925324631845
lwrist 2.414494186213232
lhand -18.73891849888256 -1.27208477201558
lfingers 7.125019999999864
lthumb 7.447846205009283 28.198242359272733
rfemur -4.3143842275846005 3.074291316436054 15.821010142140203
rtibia 22.27135780247503
rfoot -4.441799452400903 -2.789430493179098
rtoes 2.2040190698451454
lfemur -14.036709695435192 -2.1560354072914283 -13.300958274979873
ltibia 34.497745429014316
lfoot -10.708416301913157 2.098198867852296
ltoes -22.2404460443657
191
root 0 0 0 -1.692764915443463 -5.2814459638940185 -7.24821869241318
lowerback 10.091018434529076 2.4462242487878374 5.518258780168084
upperback 0.03558632317498783 3.980152432520937 1.4197968260179425
thorax -5.542444512850909 1.832053857615708 -2.180152152797384
lowerneck -14.597281703555085 -3.3234541643460243 -0.9173967105467044
upperneck 17.17536896799344 -4.581339862953402 1.3897907245652381
head 7.926022243299541 -2.130723561630021 0.11203884765865385
rclavicle -1.4932920798221154E-16 -5.360178278976668E-17
rhumerus -19.13090088099581 -6.7177033967162245 -66.83860738563558
rradius 62.327993971219925
rwrist -8.745966136722151
rhand -13.12455350620489 -10.559150485856945
rfingers 7.1250199999998545
rthumb 13.002312572655818 -39.76854780394672
lclavicle -8.640280232189153E-16 -4.069723297031935E-16
lhumerus -40.40943731928303 0.31042638508084264 83.35984368741613
lradius 39.299653590897485
lwrist 2.3592717358521527
lhand -18.622414041094068 -1.6242618313097097
lfingers 7.125019999999862
lthumb 7.557401686433506 27.844661611111107
rfemur -5.114308044726597 2.4771097643669497 14.856248920053442
rtibia 24.988065684385997
rfoot -2.36359361034163 -2.4423141818002536
rtoes 3.2903008964107476
lfemur -13.467174065824995 -2.2318177723677515 -13.568344829121376
ltibia 33.93061913463043
lfoot -10.996659925223643 2.185880756042386
ltoes -22.283443342475323
